<?xml version="1.0" encoding="UTF-8" standalone="no"?>
<svg
   xmlns:dc="http://purl.org/dc/elements/1.1/"
   xmlns:cc="http://creativecommons.org/ns#"
   xmlns:rdf="http://www.w3.org/1999/02/22-rdf-syntax-ns#"
   xmlns:svg="http://www.w3.org/2000/svg"
   xmlns="http://www.w3.org/2000/svg"
   version="1.1"
   id="svg2"
   viewBox="0 0 240 180"
   height="180"
   width="240">
  <path
     id="rect4136"
     d="m 0.98808473,11.534496 c 0,0 32.49615027,-9.4329589 49.24958427,-10.4092735 42.431964,-2.4727413 84.465731,29.4001585 126.971781,29.7128435 20.49523,0.150765 61.30029,-8.741809 61.30029,-8.741809 0,0 -27.69647,82.586433 -58.14925,106.926653 -31.79163,25.41034 -79.19692,0.97071 -116.91935,16.5947 -21.711174,8.9924 -62.45305527,32.6655 -62.45305527,32.6655 z"
     style="opacity:1;fill:#ff6699;fill-opacity:1;stroke:#ffffff;stroke-width:1.97616947;stroke-linecap:butt;stroke-linejoin:miter;stroke-miterlimit:4;stroke-dasharray:none;stroke-dashoffset:0;stroke-opacity:1" />
  <path
     style="fill:#ffffff;fill-opacity:1;fill-rule:evenodd;stroke:#ff6699;stroke-width:2.17359853;stroke-linecap:butt;stroke-linejoin:miter;stroke-miterlimit:4;stroke-dasharray:none;stroke-opacity:1"
     d="m 148.42906,80.441779 35.55552,5.206868 c 0,0 5.31097,-7.197507 8.71391,-6.699211 3.40294,0.498347 6.42826,5.15712 5.72329,8.813524 -0.70487,3.656405 -8.71392,6.699189 -8.71392,6.699189 0,0 6.42817,5.15716 5.7233,8.813491 -0.70488,3.65644 -5.31113,7.19764 -8.71407,6.69932 -3.40285,-0.49837 -5.72331,-8.81351 -5.72331,-8.81351 l -35.55547,-5.206882 z"
     id="path4188-11-0" />
  <path
     style="fill:#ffffff;fill-opacity:1;fill-rule:evenodd;stroke:#ff6699;stroke-width:2.17359853;stroke-linecap:butt;stroke-linejoin:miter;stroke-miterlimit:4;stroke-dasharray:none;stroke-opacity:1"
     d="m 137.08092,60.957352 32.72897,-14.850048 c 0,0 0.58408,-8.929031 3.71646,-10.350325 3.1324,-1.421256 8.19268,0.862564 9.57307,4.320582 1.3804,3.45799 -3.71646,10.350314 -3.71646,10.350314 0,0 8.19265,0.862643 9.57307,4.320551 1.38044,3.458023 -0.58408,8.929227 -3.71651,10.350509 -3.13234,1.421186 -9.57309,-4.320565 -9.57309,-4.320565 L 142.9375,75.628374 Z"
     id="path4188-11" />
  <path
     style="fill:#ffffff;fill-opacity:1;fill-rule:evenodd;stroke:#ff6699;stroke-width:2.17359853;stroke-linecap:butt;stroke-linejoin:miter;stroke-miterlimit:4;stroke-dasharray:none;stroke-opacity:1"
     d="M 60.524062,67.643813 25.15679,61.280571 c 0,0 -2.753341,-8.513094 -6.138238,-9.122139 -3.384913,-0.608997 -7.731328,2.847171 -8.222551,6.538445 -0.491244,3.691257 6.138259,9.122126 6.138259,9.122126 0,0 -7.7312531,2.847233 -8.222545,6.538417 -0.4912781,3.691292 2.753436,8.513263 6.138346,9.122298 3.384854,0.608947 8.222569,-6.538431 8.222569,-6.538431 l 35.367218,6.363203 z"
     id="path4188-11-0-1" />
  <path
     style="fill:#ffffff;fill-opacity:1;fill-rule:evenodd;stroke:#ff6699;stroke-width:2.17359853;stroke-linecap:butt;stroke-linejoin:miter;stroke-miterlimit:4;stroke-dasharray:none;stroke-opacity:1"
     d="m 66.894178,111.93408 -32.728961,14.85007 c 0,0 -0.584065,8.92903 -3.716446,10.35033 -3.13241,1.42125 -8.192703,-0.86257 -9.573089,-4.32059 -1.380407,-3.458 3.716465,-10.35032 3.716465,-10.35032 0,0 -8.192657,-0.86264 -9.573088,-4.32056 -1.38043,-3.45802 0.584124,-8.92923 3.716511,-10.35048 3.132359,-1.42121 9.573104,4.32054 9.573104,4.32054 L 61.03761,97.263071 Z"
     id="path4188" />
  <g
     id="text4153"
     style="font-style:normal;font-weight:normal;font-size:40px;line-height:125%;font-family:sans-serif;text-align:center;letter-spacing:0px;word-spacing:0px;text-anchor:middle;fill:#000000;fill-opacity:1;stroke:#ff6699;stroke-width:2;stroke-linecap:butt;stroke-linejoin:miter;stroke-miterlimit:4;stroke-dasharray:none;stroke-opacity:1"
     transform="matrix(1.2253145,-0.12974738,0.12961231,1.2265913,-3.1016325,-35.37833)">
    <path
       id="path4160"
       style="font-style:normal;font-variant:normal;font-weight:normal;font-stretch:normal;font-size:90px;font-family:'Luckiest Guy';-inkscape-font-specification:'Luckiest Guy';fill:#ffffff;fill-opacity:1;stroke:#ff6699;stroke-width:2;stroke-miterlimit:4;stroke-dasharray:none;stroke-opacity:1"
       d="m 124.27755,116.35354 q 0,3.64746 -1.36231,6.28418 -1.31835,2.63671 -3.55957,4.48242 -2.24121,1.8457 -5.18554,3.03222 -2.90039,1.14258 -6.06446,1.80176 -3.16406,0.65918 -6.37207,0.87891 -3.16406,0.21972 -5.93261,0.21972 -2.72461,0 -5.668948,-0.21972 -2.900391,-0.17578 -5.800782,-0.65918 -2.90039,-0.4834 -5.71289,-1.27442 -2.8125,-0.83496 -5.317383,-2.06543 l -0.08789,-56.601562 q 2.460938,-1.010742 5.229493,-1.801758 2.768554,-0.834961 5.625,-1.362304 2.90039,-0.571289 5.756836,-0.834961 2.856445,-0.307617 5.537105,-0.307617 3.12012,0 6.284179,0.395507 3.20801,0.395508 6.15235,1.31836 2.94433,0.922851 5.49316,2.416992 2.54883,1.450195 4.43848,3.603516 1.93359,2.15332 2.98828,5.009765 1.09863,2.856445 1.09863,6.591797 0,2.460938 -0.70312,4.614258 -0.70313,2.15332 -2.02149,3.867187 -1.31836,1.713868 -3.20801,2.944336 -1.88964,1.186524 -4.26269,1.757814 2.85644,0.74707 5.18555,2.19727 2.37304,1.45019 3.99902,3.51562 1.66992,2.06543 2.54883,4.65821 0.92285,2.59277 0.92285,5.53711 z M 101.95333,91.304704 q 0,-1.274414 -0.52734,-2.153321 -0.52735,-0.922851 -1.31836,-1.49414 -0.74707,-0.571289 -1.66992,-0.834961 -0.87891,-0.263672 -1.58204,-0.263672 -0.8789,0 -1.71386,0.263672 -0.83496,0.263672 -1.62598,0.615234 l -0.26367,9.75586 q 1.01074,0 2.50488,-0.175782 1.49414,-0.175781 2.85645,-0.74707 1.40625,-0.615234 2.37304,-1.757812 0.9668,-1.186524 0.9668,-3.208008 z M 95.7131,105.63088 q -1.27442,0 -2.46094,0.26367 l -0.17578,10.01953 q 0.65918,0.13184 1.27441,0.26367 0.65918,0.0879 1.27442,0.0879 0.92285,0 2.02148,-0.17579 1.09863,-0.21972 2.06543,-0.79101 0.9668,-0.61524 1.58203,-1.62598 0.65918,-1.01074 0.65918,-2.68066 0,-1.66992 -0.65918,-2.72461 -0.61523,-1.05469 -1.53808,-1.62598 -0.92286,-0.61523 -2.02149,-0.79101 -1.09863,-0.21973 -2.02148,-0.21973 z" />
    <path
       id="path4158"
       style="font-style:normal;font-variant:normal;font-weight:normal;font-stretch:normal;font-size:90px;font-family:'Luckiest Guy';-inkscape-font-specification:'Luckiest Guy';fill:#ffffff;fill-opacity:1;stroke:#ff6699;stroke-width:2;stroke-miterlimit:4;stroke-dasharray:none;stroke-opacity:1"
       d="m 78.8508,116.10059 q 0,3.64746 -1.362305,6.28418 -1.31836,2.63671 -3.55957,4.48242 -2.241211,1.8457 -5.185547,3.03222 -2.900391,1.14258 -6.064453,1.80176 -3.164063,0.65918 -6.372071,0.87891 -3.164062,0.21972 -5.932617,0.21972 -2.724609,0 -5.668945,-0.21972 -2.900391,-0.17578 -5.800782,-0.65918 -2.90039,-0.4834 -5.71289,-1.27442 -2.8125,-0.83496 -5.317383,-2.06543 l -0.08789,-56.601558 q 2.460938,-1.010742 5.229493,-1.801758 2.768554,-0.834961 5.625,-1.362304 2.90039,-0.571289 5.756836,-0.834961 2.856445,-0.307617 5.537109,-0.307617 3.120117,0 6.28418,0.395507 3.208007,0.395508 6.152343,1.31836 2.944336,0.922851 5.493164,2.416992 2.548829,1.450195 4.438477,3.603516 1.933594,2.15332 2.988281,5.009765 1.098633,2.856445 1.098633,6.591797 0,2.460938 -0.703125,4.614258 -0.703125,2.15332 -2.021484,3.867187 -1.31836,1.713868 -3.208008,2.944336 -1.889649,1.186524 -4.262695,1.75781 2.856445,0.74707 5.185546,2.19727 2.373047,1.45019 3.999024,3.51562 1.669922,2.06543 2.548828,4.65821 0.922852,2.59277 0.922852,5.53711 z M 56.526581,91.051758 q 0,-1.274414 -0.527344,-2.153321 -0.527344,-0.922851 -1.318359,-1.49414 -0.747071,-0.571289 -1.669922,-0.834961 -0.878906,-0.263672 -1.582031,-0.263672 -0.878907,0 -1.713868,0.263672 -0.834961,0.263672 -1.625976,0.615234 l -0.263672,9.75586 q 1.010742,0 2.504883,-0.175782 1.49414,-0.175781 2.856445,-0.74707 1.40625,-0.615234 2.373047,-1.757812 0.966797,-1.186524 0.966797,-3.208008 z m -6.240235,14.326172 q -1.274414,0 -2.460937,0.26367 l -0.175781,10.01953 q 0.659179,0.13184 1.274414,0.26367 0.659179,0.0879 1.274414,0.0879 0.922851,0 2.021484,-0.17579 1.098633,-0.21972 2.06543,-0.79101 0.966797,-0.61524 1.582031,-1.62598 0.65918,-1.01074 0.65918,-2.68066 0,-1.66992 -0.65918,-2.72461 -0.615234,-1.05469 -1.538086,-1.62598 -0.922851,-0.61523 -2.021484,-0.79101 -1.098633,-0.21973 -2.021485,-0.21973 z" />
  </g>
</svg>
