<?xml version="1.0" encoding="UTF-8" standalone="no"?>
<svg
   xmlns:dc="http://purl.org/dc/elements/1.1/"
   xmlns:cc="http://creativecommons.org/ns#"
   xmlns:rdf="http://www.w3.org/1999/02/22-rdf-syntax-ns#"
   xmlns:svg="http://www.w3.org/2000/svg"
   xmlns="http://www.w3.org/2000/svg"
   version="1.1"
   id="svg2"
   viewBox="0 0 60 64"
   height="64"
   width="60">
  <defs
     id="defs4" />
  <g
     transform="translate(-135.98214,-308.94782)"
     id="layer1">
    <path
       id="path4136"
       d="m 165.98214,308.94782 c -14.32284,-10e-6 -25.93378,11.30167 -25.9338,25.24301 -1e-5,6.97067 3.28642,12.93627 7.59583,17.84952 l 18.33797,20.90747 18.33796,-20.90748 c 4.30942,-4.91325 7.59585,-10.87884 7.59584,-17.84951 -3e-5,-13.94134 -11.61095,-25.24303 -25.93379,-25.24301 z m 0,14.90958 c 4.80399,1.8e-4 10.19081,5.24333 10.19081,9.91937 0,4.67604 -5.38682,9.91919 -10.19081,9.91937 -4.8044,2e-4 -10.19251,-5.24294 -10.19251,-9.91937 0,-4.67642 5.38811,-9.91957 10.19251,-9.91937 z"
       style="opacity:1;fill:#FFF;fill-opacity:1;stroke:none;stroke-width:4.22661686;stroke-linecap:butt;stroke-linejoin:miter;stroke-miterlimit:4;stroke-dasharray:none;stroke-dashoffset:0;stroke-opacity:1" />
  </g>
</svg>
