<?xml version="1.0" encoding="UTF-8" standalone="no"?>
<!-- Created with Inkscape (http://www.inkscape.org/) -->

<svg
   xmlns:dc="http://purl.org/dc/elements/1.1/"
   xmlns:cc="http://creativecommons.org/ns#"
   xmlns:rdf="http://www.w3.org/1999/02/22-rdf-syntax-ns#"
   xmlns:svg="http://www.w3.org/2000/svg"
   xmlns="http://www.w3.org/2000/svg"
   xmlns:sodipodi="http://sodipodi.sourceforge.net/DTD/sodipodi-0.dtd"
   xmlns:inkscape="http://www.inkscape.org/namespaces/inkscape"
   width="28.222225mm"
   height="28.222225mm"
   viewBox="0 0 100.00001 100.00001"
   id="svg2"
   version="1.1"
   inkscape:version="0.91 r13725"
   sodipodi:docname="marker_voucher.svg">
  <defs
     id="defs4" />
  <sodipodi:namedview
     id="base"
     pagecolor="#ffffff"
     bordercolor="#666666"
     borderopacity="1.0"
     inkscape:pageopacity="0.0"
     inkscape:pageshadow="2"
     inkscape:zoom="3.959798"
     inkscape:cx="55.863751"
     inkscape:cy="22.659332"
     inkscape:document-units="px"
     inkscape:current-layer="g4137"
     showgrid="false"
     showguides="true"
     inkscape:guide-bbox="true"
     inkscape:window-width="1920"
     inkscape:window-height="1017"
     inkscape:window-x="-8"
     inkscape:window-y="-8"
     inkscape:window-maximized="1"
     fit-margin-top="0"
     fit-margin-left="0"
     fit-margin-right="0"
     fit-margin-bottom="0">
    <sodipodi:guide
       position="-367.14291,25.142891"
       orientation="0,1"
       id="guide4754" />
    <sodipodi:guide
       position="-366.42862,75.500035"
       orientation="0,1"
       id="guide4756" />
    <sodipodi:guide
       position="-429.74369,75.500035"
       orientation="1,0"
       id="guide5075" />
    <sodipodi:guide
       position="-342.87057,49.273363"
       orientation="0,1"
       id="guide5077" />
  </sodipodi:namedview>
  <metadata
     id="metadata7">
    <rdf:RDF>
      <cc:Work
         rdf:about="">
        <dc:format>image/svg+xml</dc:format>
        <dc:type
           rdf:resource="http://purl.org/dc/dcmitype/StillImage" />
        <dc:title />
      </cc:Work>
    </rdf:RDF>
  </metadata>
  <g
     inkscape:label="Layer 1"
     inkscape:groupmode="layer"
     id="layer1"
     transform="translate(-504.99999,-508.93363)">
    <g
       id="g4229"
       transform="translate(174.10714,529.32649)">
      <g
         id="g4137">
        <circle
           style="opacity:1;fill:#b8ddb2;fill-opacity:1;stroke:#67b456;stroke-width:9.43589783;stroke-linecap:butt;stroke-linejoin:miter;stroke-miterlimit:4;stroke-dasharray:none;stroke-dashoffset:0;stroke-opacity:1"
           id="path4355-9-0-1-7-3"
           cx="380.89285"
           cy="29.607143"
           r="45.282051" />
        <rect
           height="35.344891"
           width="61.853554"
           style="fill:#67b456;fill-opacity:1"
           y="15.03132"
           id="XMLID_115_"
           x="350.74789" />
        <polygon
           points="2,16 2,12 52,16 "
           style="fill:#529743;fill-opacity:1"
           id="XMLID_114_"
           transform="matrix(1.1045277,0,0,1.1045277,350.7479,-2.6411252)" />
        <path
           d="m 401.53162,32.703769 c 0,7.930508 -6.42834,14.358856 -14.35885,14.358856 -7.93051,0 -14.35887,-6.428348 -14.35887,-14.358856 0,-7.930498 6.42836,-14.358856 14.35887,-14.358856 7.93051,0 14.35885,6.428358 14.35885,14.358856"
           style="fill:#529743;fill-opacity:1"
           id="XMLID_79_"
           inkscape:connector-curvature="0" />
        <path
           d="m 374.0468,44.853575 c -4.03815,-2.54152 -6.73098,-7.025898 -6.73098,-12.149806 0,-5.123908 2.69283,-9.608286 6.73098,-12.149796 l -11.17671,0 c 0.0166,0.182243 0.0276,0.365589 0.0276,0.552252 0,3.355555 -2.72044,6.074898 -6.07491,6.074898 -0.18665,0 -0.37,-0.01103 -0.55226,-0.02756 l 0,11.100492 c 0.18226,-0.01654 0.36561,-0.02756 0.55226,-0.02756 3.35447,0 6.07491,2.719354 6.07491,6.074909 0,0.186663 -0.0111,0.370009 -0.0276,0.552262 l 11.17671,0 z"
           style="fill:#f5f9f5;fill-opacity:1"
           id="XMLID_112_"
           inkscape:connector-curvature="0" />
        <path
           d="m 356.8228,23.867559 c -1.52314,0 -2.76131,-1.238183 -2.76131,-2.761334 0,-1.52314 1.23817,-2.761312 2.76131,-2.761312 1.52315,0 2.76132,1.238172 2.76132,2.761312 0,1.523151 -1.23817,2.761334 -2.76132,2.761334"
           style="fill:#f5f9f5;fill-opacity:1"
           id="XMLID_110_"
           inkscape:connector-curvature="0" />
        <path
           d="m 406.52656,23.867559 c -1.52315,0 -2.76133,-1.238183 -2.76133,-2.761334 0,-1.52314 1.23818,-2.761312 2.76133,-2.761312 1.52314,0 2.76131,1.238172 2.76131,2.761312 0,1.523151 -1.23817,2.761334 -2.76131,2.761334"
           style="fill:#f5f9f5;fill-opacity:1"
           id="XMLID_109_"
           inkscape:connector-curvature="0" />
        <path
           d="m 356.8228,47.062625 c -1.52314,0 -2.76131,-1.238172 -2.76131,-2.761312 0,-1.52315 1.23817,-2.761323 2.76131,-2.761323 1.52315,0 2.76132,1.238173 2.76132,2.761323 0,1.52314 -1.23817,2.761312 -2.76132,2.761312"
           style="fill:#f5f9f5;fill-opacity:1"
           id="XMLID_108_"
           inkscape:connector-curvature="0" />
        <path
           d="m 406.52656,47.062625 c -1.52315,0 -2.76133,-1.238172 -2.76133,-2.761312 0,-1.52315 1.23818,-2.761323 2.76133,-2.761323 1.52314,0 2.76131,1.238173 2.76131,2.761323 0,1.52314 -1.23817,2.761312 -2.76131,2.761312"
           style="fill:#f5f9f5;fill-opacity:1"
           id="XMLID_107_"
           inkscape:connector-curvature="0" />
        <polygon
           points="5,8 5,12.24 52,16 55,16 "
           style="fill:#529743;fill-opacity:1"
           id="XMLID_106_"
           transform="matrix(1.1045277,0,0,1.1045277,350.7479,-2.6411252)" />
        <g
           id="g4620"
           transform="matrix(1.250962,0,0,1.250962,480.74845,42.430617)">
          <g
             id="XMLID_3_">
            <g
               id="XMLID_105_">
              <path
                 d="m -74.853738,0.34227953 c -2.757,0 -5,-2.24300003 -5,-5.00000003 0,-0.553 0.448,-1 1,-1 0.552,0 1,0.447 1,1 0,1.654 1.346,3 3,3 0.884,0 1.72,-0.388 2.292,-1.064 0.256,-0.303 0.374,-0.696 0.331,-1.106 -0.046,-0.438 -0.272,-0.847 -0.622,-1.118 l -5.23,-4.068 c -0.777,-0.605 -1.282,-1.5129995 -1.383,-2.4919995 -0.1,-0.956 0.182,-1.881 0.794,-2.603 0.952,-1.126 2.344,-1.772 3.818,-1.772 2.757,0 5,2.244 5,5 0,0.553 -0.448,0.9999995 -1,0.9999995 -0.552,0 -1,-0.4469995 -1,-0.9999995 0,-1.654 -1.346,-3 -3,-3 -0.884,0 -1.72,0.388 -2.292,1.065 -0.256,0.303 -0.374,0.694 -0.331,1.103 0.046,0.439 0.272,0.848 0.622,1.12 l 5.23,4.0689995 c 0.777,0.604 1.281,1.511 1.383,2.488 0.1,0.957 -0.182,1.882 -0.793,2.606 -0.953,1.12600003 -2.345,1.77200003 -3.819,1.77200003"
                 style="fill:#f5f9f5;fill-opacity:1"
                 id="XMLID_119_"
                 inkscape:connector-curvature="0" />
              <path
                 d="m -74.853738,2.1192795 c -0.552,0 -1,-0.447 -1,-1 l 0,-17.9999995 c 0,-0.553 0.448,-1 1,-1 0.552,0 1,0.447 1,1 l 0,17.9999995 c 0,0.553 -0.448,1 -1,1"
                 style="fill:#f5f9f5;fill-opacity:1"
                 id="XMLID_118_"
                 inkscape:connector-curvature="0" />
            </g>
          </g>
          <g
             id="g4584" />
          <g
             id="g4586" />
          <g
             id="g4588" />
          <g
             id="g4590" />
          <g
             id="g4592" />
          <g
             id="g4594" />
          <g
             id="g4596" />
          <g
             id="g4598" />
          <g
             id="g4600" />
          <g
             id="g4602" />
          <g
             id="g4604" />
          <g
             id="g4606" />
          <g
             id="g4608" />
          <g
             id="g4610" />
          <g
             id="g4612" />
        </g>
        <g
           id="g4494"
           transform="matrix(1.0601065,0,0,1.0601065,140.19119,-112.89465)" />
        <g
           id="g4496"
           transform="matrix(1.0601065,0,0,1.0601065,140.19119,-112.89465)" />
        <g
           id="g4498"
           transform="matrix(1.0601065,0,0,1.0601065,140.19119,-112.89465)" />
        <g
           id="g4500"
           transform="matrix(1.0601065,0,0,1.0601065,140.19119,-112.89465)" />
        <g
           id="g4502"
           transform="matrix(1.0601065,0,0,1.0601065,140.19119,-112.89465)" />
        <g
           id="g4504"
           transform="matrix(1.0601065,0,0,1.0601065,140.19119,-112.89465)" />
        <g
           id="g4506"
           transform="matrix(1.0601065,0,0,1.0601065,140.19119,-112.89465)" />
        <g
           id="g4508"
           transform="matrix(1.0601065,0,0,1.0601065,140.19119,-112.89465)" />
        <g
           id="g4510"
           transform="matrix(1.0601065,0,0,1.0601065,140.19119,-112.89465)" />
        <g
           id="g4512"
           transform="matrix(1.0601065,0,0,1.0601065,140.19119,-112.89465)" />
        <g
           id="g4514"
           transform="matrix(1.0601065,0,0,1.0601065,140.19119,-112.89465)" />
        <g
           id="g4516"
           transform="matrix(1.0601065,0,0,1.0601065,140.19119,-112.89465)" />
        <g
           id="g4518"
           transform="matrix(1.0601065,0,0,1.0601065,140.19119,-112.89465)" />
        <g
           id="g4520"
           transform="matrix(1.0601065,0,0,1.0601065,140.19119,-112.89465)" />
        <g
           id="g4522"
           transform="matrix(1.0601065,0,0,1.0601065,140.19119,-112.89465)" />
      </g>
      <g
         id="g4193" />
      <g
         id="g4195" />
      <g
         id="g4197" />
      <g
         id="g4199" />
      <g
         id="g4201" />
      <g
         id="g4203" />
      <g
         id="g4205" />
      <g
         id="g4207" />
      <g
         id="g4209" />
      <g
         id="g4211" />
      <g
         id="g4213" />
      <g
         id="g4215" />
      <g
         id="g4217" />
      <g
         id="g4219" />
      <g
         id="g4221" />
    </g>
  </g>
</svg>
